<?xml version="1.0" encoding="UTF-8"?>
<svg id="Camada_1" data-name="Camada 1" xmlns="http://www.w3.org/2000/svg" xmlns:xlink="http://www.w3.org/1999/xlink" viewBox="0 0 1979.08 345.85">
  <defs>
    <style>
      .cls-1 {
        fill: url(#linear-gradient-2);
      }

      .cls-2 {
        letter-spacing: .01em;
      }

      .cls-3 {
        letter-spacing: 0em;
      }

      .cls-4 {
        fill: url(#linear-gradient-14);
      }

      .cls-5 {
        fill: url(#linear-gradient-6);
      }

      .cls-6 {
        letter-spacing: -.04em;
      }

      .cls-7 {
        fill: url(#linear-gradient-11);
      }

      .cls-8 {
        fill: url(#linear-gradient-10);
      }

      .cls-9 {
        letter-spacing: 0em;
      }

      .cls-10 {
        opacity: .4;
      }

      .cls-11 {
        letter-spacing: -.02em;
      }

      .cls-12 {
        fill: url(#linear-gradient-5);
      }

      .cls-13 {
        fill: #1b0954;
        font-family: SourceSansPro-Regular, 'Source Sans Pro';
        font-size: 58px;
      }

      .cls-14 {
        fill: url(#linear-gradient-7);
      }

      .cls-15 {
        fill: url(#linear-gradient-9);
      }

      .cls-16 {
        fill: url(#linear-gradient-3);
      }

      .cls-17 {
        fill: #f6eb27;
      }

      .cls-18 {
        fill: url(#linear-gradient);
      }

      .cls-19 {
        letter-spacing: -.04em;
      }

      .cls-20 {
        letter-spacing: .01em;
      }

      .cls-21 {
        fill: url(#linear-gradient-4);
      }

      .cls-22 {
        fill: url(#linear-gradient-8);
      }

      .cls-23 {
        fill: url(#linear-gradient-12);
      }

      .cls-24 {
        fill: url(#linear-gradient-13);
      }
    </style>
    <linearGradient id="linear-gradient" x1="0" y1="172.92" x2="345.85" y2="172.92" gradientUnits="userSpaceOnUse">
      <stop offset="0" stop-color="#6657a4"/>
      <stop offset=".39" stop-color="#417aba"/>
      <stop offset="1" stop-color="#02b8e2"/>
    </linearGradient>
    <linearGradient id="linear-gradient-2" x1="85.41" y1="163.76" x2="256.45" y2="163.76" xlink:href="#linear-gradient"/>
    <linearGradient id="linear-gradient-3" x1="54.58" y1="161.85" x2="285.47" y2="161.85" xlink:href="#linear-gradient"/>
    <linearGradient id="linear-gradient-4" x1="68.51" y1="231.55" x2="273.35" y2="231.55" xlink:href="#linear-gradient"/>
    <linearGradient id="linear-gradient-5" x1="142.24" y1="170.14" x2="276.73" y2="170.14" xlink:href="#linear-gradient"/>
    <linearGradient id="linear-gradient-6" x1="56.62" y1="167.59" x2="87.21" y2="167.59" xlink:href="#linear-gradient"/>
    <linearGradient id="linear-gradient-7" x1="400.46" y1="146.8" x2="1795.33" y2="146.8" xlink:href="#linear-gradient"/>
    <linearGradient id="linear-gradient-8" x1="400.46" y1="146.8" x2="1795.33" y2="146.8" xlink:href="#linear-gradient"/>
    <linearGradient id="linear-gradient-9" x1="400.46" y1="146.8" x2="1795.33" y2="146.8" xlink:href="#linear-gradient"/>
    <linearGradient id="linear-gradient-10" x1="400.46" y1="146.8" x2="1795.33" y2="146.8" xlink:href="#linear-gradient"/>
    <linearGradient id="linear-gradient-11" x1="400.46" y1="146.8" x2="1795.33" y2="146.8" xlink:href="#linear-gradient"/>
    <linearGradient id="linear-gradient-12" x1="400.46" y1="146.8" x2="1795.33" y2="146.8" xlink:href="#linear-gradient"/>
    <linearGradient id="linear-gradient-13" x1="400.46" y1="146.8" x2="1795.33" y2="146.8" xlink:href="#linear-gradient"/>
    <linearGradient id="linear-gradient-14" x1="400.46" y1="146.8" x2="1795.33" y2="146.8" xlink:href="#linear-gradient"/>
  </defs>
  <path class="cls-18" d="m323.79,84.57c-11.54-22.75-39.76-50.97-62.52-62.52C100.25-59.63-59.63,100.25,22.06,261.27c11.54,22.75,39.76,50.97,62.52,62.52,161.03,81.69,320.9-78.19,239.22-239.22Zm-227.25,218.89c-23.32-11.82-42.34-30.84-54.16-54.16C-28.21,110.04,110.04-28.21,249.31,42.39c23.32,11.82,42.34,30.84,54.16,54.16,70.6,139.27-67.65,277.52-206.92,206.92Z"/>
  <path class="cls-17" d="m249.79,213.71H92.07c-1.75,0-3.16-1.42-3.16-3.16l4.36-93.59c0-1.75,1.42-3.16,3.16-3.16h149c1.75,0,3.16,1.42,3.16,3.16l4.36,93.59c0,1.75-1.42,3.16-3.16,3.16Z"/>
  <g>
    <path class="cls-1" d="m249.79,217.2H92.07c-3.67,0-6.65-2.99-6.65-6.65v-.16s4.36-93.52,4.36-93.52c.05-3.62,3.02-6.56,6.65-6.56h149c3.64,0,6.6,2.93,6.65,6.56l4.36,93.68c0,3.67-2.99,6.65-6.65,6.65Zm-157.38-6.98h157.03l-4.33-92.93H96.75l-4.33,92.93Z"/>
    <path class="cls-16" d="m249.46,125.34c6.76.03,13.51.45,20.14,1.85,3.31.72,6.59,1.69,9.67,3.39,1.52.87,3.02,1.93,4.22,3.44.6.76,1.12,1.62,1.48,2.6.36.98.52,2.06.5,3.14-.03,2.19-.88,4.22-1.89,5.94-1.04,1.72-2.28,3.23-3.6,4.59-2.65,2.72-5.57,4.96-8.56,7.02-6,4.09-12.35,7.33-18.76,10.32-6.41,2.98-12.94,5.6-19.53,7.96-6.59,2.37-13.23,4.51-19.91,6.49-13.36,3.89-26.87,7.02-40.44,9.62-13.58,2.48-27.23,4.43-40.93,5.6-6.85.55-13.71.91-20.58,1.02-3.43.05-6.87.06-10.3-.03-3.43-.11-6.87-.3-10.3-.59-3.43-.3-6.86-.69-10.28-1.25-3.42-.56-6.85-1.27-10.23-2.32-3.38-1.07-6.78-2.38-10-4.68-1.59-1.18-3.17-2.66-4.32-4.76-.57-1.05-.98-2.27-1.16-3.56-.18-1.28-.11-2.61.16-3.84.56-2.48,1.76-4.51,3.04-6.19,1.3-1.68,2.72-3.1,4.18-4.37,2.93-2.53,6.01-4.57,9.16-6.37,6.29-3.62,12.78-6.44,19.34-8.89l1.55,4.28c-3.09,1.51-6.16,3.04-9.15,4.69-3,1.63-5.93,3.36-8.72,5.23-2.78,1.87-5.47,3.86-7.73,6.05-1.12,1.09-2.13,2.24-2.91,3.38-.78,1.14-1.27,2.26-1.4,3.16-.1.9.02,1.56.47,2.32.47.76,1.31,1.56,2.37,2.27,2.17,1.42,5.02,2.46,7.98,3.24,5.97,1.55,12.44,2.31,18.95,2.7,13.08.68,26.44.23,39.79-.98,13.35-1.14,26.73-2.91,40.06-5.26,13.34-2.23,26.61-5.09,39.77-8.49,13.17-3.36,26.2-7.43,38.86-12.43,6.31-2.53,12.51-5.4,18.31-8.81,2.89-1.71,5.67-3.6,8.07-5.76,2.35-2.14,4.41-4.72,4.66-7.19.16-1.23-.17-2.44-.91-3.57-.73-1.13-1.85-2.12-3.09-2.99-2.51-1.72-5.54-2.92-8.6-3.94-3.09-1-6.3-1.77-9.56-2.4-3.25-.67-6.55-1.14-9.87-1.59Z"/>
    <path class="cls-21" d="m266.7,222.77H75.16c-3.67,0-6.65,2.99-6.65,6.65,0,6.01,4.89,10.91,10.91,10.91h183.03c6.01,0,10.91-4.89,10.91-10.91,0-3.67-2.99-6.65-6.65-6.65Zm-67.57,11.78h-56.39c-1.66,0-3-1.34-3-3s1.34-3,3-3h56.39c1.66,0,3,1.34,3,3s-1.34,3-3,3Z"/>
    <g>
      <g class="cls-10">
        <path class="cls-12" d="m142.24,190.44c5.79-.83,11.57-1.72,17.34-2.75,5.77-.97,11.53-2.03,17.28-3.19,11.49-2.31,22.96-4.83,34.31-7.96,11.37-2.99,22.64-6.53,33.68-10.8,2.77-1.03,5.5-2.2,8.23-3.34,2.71-1.22,5.42-2.42,8.08-3.76,5.35-2.6,10.56-5.53,15.57-8.82-9.67,7.17-20.45,12.65-31.47,17.17-5.5,2.31-11.11,4.29-16.75,6.15-5.64,1.85-11.31,3.56-17.02,5.1-11.43,3-22.94,5.55-34.49,7.59-5.78,1-11.57,1.92-17.36,2.72-5.8.74-11.6,1.47-17.41,1.9Z"/>
      </g>
      <g class="cls-10">
        <path class="cls-5" d="m56.62,179.92c0-.83.21-1.67.47-2.48.26-.82.64-1.59,1.02-2.37.44-.74.86-1.51,1.38-2.21.25-.36.5-.71.76-1.06l.84-.99c2.27-2.64,4.95-4.88,7.78-6.85.69-.52,1.45-.93,2.17-1.39.73-.44,1.44-.93,2.19-1.34l2.26-1.2c.75-.4,1.5-.81,2.28-1.14,1.55-.69,3.09-1.4,4.67-2,1.59-.57,3.17-1.14,4.77-1.63-1.48.85-2.97,1.63-4.47,2.41-1.49.77-2.94,1.64-4.42,2.42-1.47.81-2.89,1.7-4.34,2.54-1.41.89-2.83,1.78-4.2,2.73l-2.04,1.45c-.69.47-1.3,1.04-1.97,1.54-.33.26-.66.51-.98.78l-.93.84c-.62.55-1.24,1.11-1.81,1.71-2.29,2.37-4.52,5-5.44,8.24Z"/>
      </g>
    </g>
  </g>
  <g>
    <path class="cls-14" d="m400.46,261.58V32.03h82.64c12.01,0,23.31.88,33.9,2.65s19.78,4.77,27.55,9.01,13.95,10.07,18.54,17.48c4.59,7.42,6.89,16.78,6.89,28.08,0,4.94-.71,9.95-2.12,15.01-1.41,5.07-3.36,9.89-5.83,14.48-2.47,4.59-5.47,8.65-9.01,12.18-3.53,3.53-7.54,6.12-12.01,7.77v1.41c11.06,3.3,20.42,9.24,28.08,17.83,7.65,8.6,11.48,20.54,11.48,35.85,0,11.78-2.42,21.96-7.24,30.55-4.83,8.6-11.3,15.66-19.42,21.19-8.12,5.53-17.72,9.6-28.78,12.18-11.07,2.59-22.72,3.88-34.96,3.88h-89.7Zm60.74-139.85h20.48c9.89,0,17.18-2.12,21.9-6.36,4.71-4.24,7.06-9.89,7.06-16.95s-2.36-12.12-7.06-15.19c-4.71-3.06-12.01-4.59-21.9-4.59h-20.48v43.09Zm0,93.23h24.72c23.54,0,35.32-8.48,35.32-25.43,0-8.48-2.89-14.48-8.65-18.01-5.77-3.53-14.66-5.3-26.66-5.3h-24.72v48.74Z"/>
    <path class="cls-22" d="m616.6,261.58V32.03h60.74v229.55h-60.74Z"/>
    <path class="cls-15" d="m771.98,261.58V82.88h-60.74v-50.86h182.23v50.86h-60.74v178.7h-60.74Z"/>
    <path class="cls-8" d="m927.37,261.58V32.03h148.33v50.86h-87.58v36.02h74.87v50.85h-74.87v40.97h91.12v50.86h-151.86Z"/>
    <path class="cls-7" d="m1123.73,261.58V32.03h67.81c17.42,0,33.37,2.12,47.85,6.36,14.48,4.24,26.9,10.95,37.26,20.13,10.36,9.18,18.42,20.96,24.19,35.32,5.77,14.36,8.65,31.67,8.65,51.92s-2.83,37.67-8.48,52.27c-5.65,14.6-13.6,26.61-23.84,36.02-10.24,9.42-22.37,16.37-36.38,20.84-14.01,4.48-29.26,6.71-45.73,6.71h-71.34Zm60.74-48.74h3.53c8.24,0,16.01-1,23.31-3,7.29-2,13.6-5.47,18.89-10.42,5.3-4.94,9.48-11.77,12.54-20.48,3.06-8.71,4.59-19.78,4.59-33.2s-1.53-24.37-4.59-32.84c-3.06-8.48-7.24-15.06-12.54-19.78-5.3-4.71-11.6-7.95-18.89-9.71-7.3-1.77-15.07-2.65-23.31-2.65h-3.53v132.08Z"/>
    <path class="cls-23" d="m1444.4,265.82c-32.26,0-56.21-9.36-71.87-28.08-15.66-18.72-23.49-47.73-23.49-87.05V32.03h60.74v125.73c0,20.48,2.76,34.91,8.3,43.26,5.53,8.36,14.3,12.54,26.31,12.54s20.89-4.18,26.66-12.54c5.77-8.35,8.65-22.78,8.65-43.26V32.03h58.62v118.66c0,39.32-7.65,68.34-22.96,87.05-15.31,18.72-38.97,28.08-70.99,28.08Z"/>
    <path class="cls-24" d="m1687.37,265.82c-14.6,0-28.55-2.42-41.85-7.24-13.3-4.82-24.96-12.12-34.96-21.9-10.01-9.77-17.96-22.01-23.84-36.73-5.89-14.71-8.83-31.84-8.83-51.38s3.06-36.43,9.18-51.38c6.12-14.95,14.3-27.55,24.54-37.79s22.01-18.07,35.32-23.49c13.3-5.41,27.25-8.12,41.85-8.12s28.96,3,40.97,9.01,22.13,13.13,30.37,21.37l-31.79,38.85c-5.65-4.94-11.48-9.01-17.48-12.18-6-3.18-12.89-4.77-20.66-4.77-6.83,0-13.24,1.53-19.25,4.59-6,3.06-11.3,7.42-15.89,13.07-4.59,5.65-8.24,12.6-10.95,20.84-2.71,8.24-4.06,17.54-4.06,27.9,0,21.66,4.53,38.26,13.6,49.8,9.06,11.54,21.01,17.3,35.85,17.3,8.95,0,16.89-1.94,23.84-5.83,6.94-3.88,12.89-8.53,17.83-13.95l31.78,38.14c-9.89,11.3-21.25,19.78-34.08,25.43-12.83,5.65-26.66,8.48-41.5,8.48Z"/>
    <path class="cls-4" d="m1765.78,261.58l69.93-229.55h73.46l69.93,229.55h-64.28l-11.3-48.74h-64.28l-11.3,48.74h-62.16Zm88.29-111.6l-3.88,15.89h42.38l-3.88-15.89c-2.83-11.06-5.65-23.07-8.48-36.02-2.83-12.95-5.65-25.19-8.48-36.73h-1.41c-2.59,11.78-5.24,24.08-7.95,36.91-2.71,12.84-5.47,24.78-8.3,35.85Z"/>
  </g>
  <text class="cls-13" transform="translate(399.98 325.16)"><tspan class="cls-2" x="0" y="0">PRE</tspan><tspan class="cls-6" x="98.48" y="0">P</tspan><tspan class="cls-2" x="129.11" y="0">A</tspan><tspan class="cls-3" x="161.35" y="0">R</tspan><tspan class="cls-2" x="194.82" y="0">ANDO A</tspan><tspan class="cls-11" x="385.4" y="0">L</tspan><tspan class="cls-2" x="412.61" y="0">UNOS </tspan><tspan class="cls-19" x="572.1" y="0">P</tspan><tspan class="cls-20" x="602.73" y="0">A</tspan><tspan class="cls-3" x="634.98" y="0">R</tspan><tspan class="cls-2" x="668.44" y="0">A SEREM PROFI</tspan><tspan class="cls-9" x="1047.75" y="0">S</tspan><tspan class="cls-2" x="1078.61" y="0">SIONAIS DESEJADOS</tspan></text>
</svg>